# xmcd
# Copyright (C) 1995-1998 Ti Kan
#
# Track frame offsets:
#       150
#       92884
#       157266
#       223407
#
# Disc length: 3607 seconds
#
# Revision: 0
# Processed by: cddbd v1.5.2PL0 Copyright (c) Steve Scherf et al.
# Submitted via: CD-Transfer v1.0
#
DISCID=3b0e1504
DTITLE=Beiträge - 
DYEAR=1900
DGENRE=
TTITLE0=Hitclub 23.05.10 - 05
TTITLE1=Hitclub 23.05.10 - 06
TTITLE2=Hitclub 23.05.10 - 07
TTITLE3=Hitclub 23.05.10 - 08
EXTD=
EXTT0=
EXTT1=
EXTT2=
EXTT3=
PLAYORDER=
